<?xml version="1.0" standalone="no"?>
<!DOCTYPE svg PUBLIC "-//W3C//DTD SVG 20010904//EN"
 "http://www.w3.org/TR/2001/REC-SVG-20010904/DTD/svg10.dtd">
<svg version="1.0" xmlns="http://www.w3.org/2000/svg"
 width="300.000000pt" height="200.000000pt" viewBox="0 0 300.000000 200.000000"
 preserveAspectRatio="xMidYMid meet">
<metadata>
Created by potrace 1.10, written by Peter Selinger 2001-2011
</metadata>
<g transform="translate(0.000000,200.000000) scale(0.100000,-0.100000)"
fill="#000000" stroke="none">
<path d="M2304 1750 c0 -52 1 -74 3 -47 2 26 2 68 0 95 -2 26 -3 4 -3 -48z"/>
<path d="M1274 1700 c-12 -4 -31 -21 -43 -36 l-22 -29 21 -17 c25 -20 93 -24
135 -8 36 14 30 48 -14 77 -37 25 -45 26 -77 13z m53 -24 c4 -8 17 -15 28 -18
11 -2 20 -10 20 -18 0 -12 -15 -15 -70 -15 -79 0 -90 13 -40 44 37 24 52 25
62 7z"/>
<path d="M1908 1645 c-8 -18 -8 -35 -1 -60 8 -25 8 -35 0 -35 -8 0 -7 -4 1
-12 7 -7 12 -25 12 -40 0 -18 5 -28 14 -28 23 0 28 18 9 29 -10 6 -13 11 -6
11 21 0 63 72 62 105 -1 28 -2 27 -9 -8 -4 -21 -12 -43 -19 -50 -14 -14 -14
-8 0 31 8 23 7 37 -3 56 -12 23 -13 21 -13 -34 -1 -33 -4 -62 -8 -67 -16 -15
-28 23 -24 75 2 28 2 52 0 52 -2 0 -9 -11 -15 -25z"/>
<path d="M890 1565 c-2 -22 -4 -55 -5 -72 -2 -26 -13 -42 -50 -75 -27 -24 -62
-58 -79 -75 -18 -21 -39 -33 -54 -33 -24 0 -24 -1 -7 -19 9 -11 33 -21 54 -23
35 -3 36 -4 39 -50 2 -28 -1 -48 -7 -48 -6 0 -21 -11 -35 -25 -14 -14 -32 -25
-41 -25 -8 0 -15 -5 -15 -10 0 -13 43 -30 76 -30 22 0 24 -4 24 -51 0 -27 -4
-48 -9 -45 -4 3 -19 -6 -31 -19 -13 -14 -30 -25 -37 -25 -14 0 -103 48 -113
61 -3 3 -23 16 -45 27 l-40 21 44 1 c38 0 43 2 38 20 -3 11 -1 23 4 26 14 8
10 24 -6 24 -8 0 -15 6 -15 13 0 9 -24 12 -85 12 -61 0 -85 -3 -85 -12 0 -7
-7 -13 -15 -13 -17 0 -20 -16 -5 -25 6 -3 10 -15 10 -26 0 -15 7 -19 38 -19
l37 -1 -39 -20 c-21 -12 -48 -29 -59 -40 -11 -10 -44 -28 -74 -41 -29 -12 -53
-25 -53 -30 0 -4 54 -8 120 -8 87 0 120 3 120 12 0 9 3 9 12 0 7 -7 46 -12
103 -13 49 0 110 -4 135 -7 l45 -7 3 -47 c2 -30 -1 -48 -8 -48 -6 0 -22 -12
-36 -27 l-25 -27 -45 24 c-25 14 -48 28 -50 33 -3 4 26 7 65 7 38 0 73 4 76
10 3 5 1 10 -5 10 -6 0 -28 8 -49 18 -28 14 -56 18 -109 16 -52 -2 -74 1 -83
12 -15 18 -33 18 -48 0 -9 -11 -34 -15 -84 -14 -71 0 -176 -29 -161 -45 4 -4
39 -7 77 -7 58 0 68 2 58 14 -9 11 -7 15 8 19 10 2 24 1 31 -3 16 -10 -97 -83
-172 -113 -55 -21 -74 -37 -45 -37 6 -1 145 -2 307 -3 l295 -2 2 -50 c2 -36 0
-45 -7 -30 -7 16 -9 10 -9 -25 l-1 -45 140 0 c131 0 140 1 140 19 0 10 -6 24
-14 30 -11 8 -12 24 -7 64 5 36 4 51 -3 49 -6 -2 -12 -27 -14 -55 -4 -73 -23
-65 -21 8 2 56 4 61 28 66 49 9 74 19 78 29 2 6 -6 11 -18 12 -12 1 -31 11
-43 22 -12 12 -28 21 -34 21 -8 0 -12 16 -10 45 1 40 4 46 27 51 51 10 74 19
79 32 2 7 -5 12 -17 12 -12 0 -31 10 -43 22 -13 13 -27 23 -33 23 -5 0 -10 20
-10 45 1 44 1 45 39 51 20 3 45 13 54 23 15 15 15 16 -4 16 -11 0 -31 11 -44
25 -13 14 -29 25 -37 25 -8 0 -13 12 -13 30 0 17 5 30 13 30 8 0 7 4 -3 10
-13 9 -13 11 0 20 8 5 25 10 38 10 27 0 62 17 62 29 0 5 -13 11 -29 14 -17 4
-35 16 -42 29 -7 13 -22 30 -33 38 -12 8 -38 30 -58 48 -35 32 -37 37 -41 105
-2 51 -4 60 -7 32z m38 -170 c12 -14 32 -25 44 -25 16 0 19 -3 11 -11 -9 -9
-6 -16 10 -30 12 -9 19 -21 14 -25 -9 -10 -212 -13 -227 -4 -7 4 -1 14 14 25
17 13 22 23 15 31 -7 8 -1 13 20 17 17 4 35 15 41 27 14 27 32 25 58 -5z m50
-180 c1 -25 -2 -45 -8 -45 -5 0 -10 11 -10 25 0 20 -5 25 -25 25 -20 0 -25 -5
-25 -25 0 -16 -6 -25 -15 -25 -9 0 -15 9 -15 25 0 21 -5 25 -29 25 -25 0 -28
-3 -23 -25 2 -15 0 -25 -7 -25 -6 0 -11 19 -11 45 l0 45 83 0 84 0 1 -45z m15
-80 c42 -17 9 -25 -98 -25 -113 0 -143 10 -92 30 24 9 161 6 190 -5z m-415
-32 c2 -9 -9 -13 -36 -13 -36 0 -39 -2 -34 -25 5 -26 72 -82 140 -116 l37 -18
-32 -1 c-17 0 -35 5 -38 10 -8 14 -65 13 -65 -1 0 -6 -6 -9 -12 -6 -7 2 -12
13 -11 23 1 10 0 13 -3 7 -3 -7 -18 -13 -34 -13 -16 0 -31 -6 -34 -12 -5 -10
-7 -10 -12 0 -7 14 -50 16 -59 2 -3 -5 -23 -10 -43 -9 -32 0 -34 1 -14 9 47
19 143 93 153 116 13 35 14 34 -31 34 -38 0 -49 8 -33 24 13 12 156 2 161 -11z
m402 -73 c0 -27 -4 -50 -10 -50 -5 0 -10 14 -10 30 0 25 -4 30 -25 30 -21 0
-25 -5 -25 -30 0 -20 -5 -30 -15 -30 -10 0 -15 10 -15 30 0 27 -3 30 -30 30
-27 0 -29 -2 -23 -30 3 -19 1 -30 -6 -30 -7 0 -11 20 -11 50 l0 50 85 0 85 0
0 -50z m-81 -76 c2 -2 9 0 16 6 14 12 88 -7 83 -22 -3 -8 -155 -14 -212 -9
-16 2 15 30 37 34 21 4 68 -2 76 -9z m81 -109 c0 -25 -4 -45 -10 -45 -5 0 -10
11 -10 25 0 17 -5 25 -18 25 -10 0 -24 6 -30 12 -10 10 -17 10 -32 0 -11 -6
-28 -12 -38 -12 -15 0 -18 -6 -14 -25 2 -15 0 -25 -7 -25 -6 0 -11 19 -11 45
l0 45 85 0 85 0 0 -45z m-455 5 c9 -15 150 -108 179 -120 16 -6 26 -5 28 1 2
6 18 4 40 -6 24 -9 68 -15 123 -15 50 0 85 -4 85 -10 0 -5 -19 -11 -42 -12
l-43 -1 43 -4 43 -4 -3 -47 c-2 -37 -8 -49 -25 -58 -13 -6 -20 -14 -16 -17 12
-13 -33 -7 -46 6 -11 10 -13 10 -7 0 5 -9 0 -13 -15 -13 -12 0 -19 3 -16 7 4
3 -3 11 -16 17 -18 10 -22 21 -25 69 -2 35 -8 57 -15 58 -90 5 -143 12 -148
21 -9 14 -85 6 -81 -9 1 -7 -7 -13 -18 -13 -11 0 -19 6 -18 13 2 8 -12 13 -39
15 -34 2 -43 0 -43 -12 0 -9 -7 -16 -15 -16 -8 0 -15 7 -15 15 0 17 -59 22
-75 6 -9 -8 -95 -21 -95 -14 0 1 21 14 48 27 26 13 79 47 117 74 70 50 98 61
110 42z m385 -20 c0 -20 -5 -30 -15 -30 -10 0 -15 10 -15 30 0 20 5 30 15 30
10 0 15 -10 15 -30z m14 -55 c34 7 86 -8 86 -25 0 -13 -217 -14 -225 0 -10 16
56 38 84 28 13 -5 38 -6 55 -3z"/>
<path d="M510 795 c0 -8 7 -15 15 -15 9 0 20 -10 25 -22 5 -13 9 -17 9 -9 1 7
7 11 16 7 25 -9 17 0 -25 28 -31 20 -40 23 -40 11z"/>
<path d="M821 648 c1 -47 11 -53 77 -53 l62 0 0 38 0 37 -70 0 c-66 0 -70 -1
-69 -22z"/>
<path d="M2290 1520 c0 -22 -4 -40 -10 -40 -5 0 -10 -4 -10 -10 0 -5 16 -10
35 -10 19 0 35 5 35 10 0 6 -4 10 -10 10 -5 0 -10 18 -10 40 0 29 -4 40 -15
40 -11 0 -15 -11 -15 -40z"/>
<path d="M487 1490 c-83 -52 -57 -96 56 -94 73 2 105 18 94 48 -6 15 -83 76
-97 76 -3 0 -27 -13 -53 -30z m83 -9 c5 -11 20 -21 32 -23 13 -2 23 -10 23
-18 0 -12 -18 -16 -87 -18 -73 -2 -88 0 -88 12 0 8 16 23 35 32 20 9 38 20 41
25 9 15 33 10 44 -10z"/>
<path d="M2024 1474 c3 -9 6 -20 6 -25 0 -20 18 -7 22 16 4 20 1 25 -14 25
-14 0 -18 -5 -14 -16z"/>
<path d="M2505 1448 c-27 -14 -45 -38 -45 -60 0 -38 141 -42 164 -5 9 16 5 23
-24 48 -36 31 -62 35 -95 17z m62 -14 c3 -8 17 -20 30 -25 41 -16 15 -29 -58
-29 -55 0 -69 3 -69 15 0 8 5 15 10 15 6 0 20 9 32 20 26 24 46 26 55 4z"/>
<path d="M2273 1346 c1 -35 -1 -62 -5 -59 -5 2 -8 -1 -8 -6 0 -6 20 -11 46
-11 43 0 46 2 40 23 -3 12 -6 43 -6 70 0 47 0 47 -34 47 l-35 0 2 -64z"/>
<path d="M1104 1339 c-4 -7 0 -9 14 -5 13 4 25 1 34 -9 32 -39 41 -45 58 -45
23 0 32 -13 24 -34 -5 -13 -25 -16 -113 -16 -121 -1 -122 -18 -1 -20 99 -2 96
-2 114 16 28 28 19 51 -38 88 -55 37 -80 44 -92 25z"/>
<path d="M1906 1241 c-3 -5 -22 -16 -41 -26 -20 -9 -41 -28 -48 -42 -10 -22
-8 -28 12 -44 35 -29 192 -28 221 1 24 24 15 51 -22 71 -12 6 -31 20 -42 30
-20 20 -71 26 -80 10z m69 -29 c6 -13 23 -26 40 -30 20 -6 30 -15 30 -28 0
-18 -8 -19 -105 -19 -101 0 -105 1 -108 23 -2 15 2 22 13 22 9 0 21 5 28 10
68 57 85 60 102 22z"/>
<path d="M2460 995 c-13 -129 -27 -230 -30 -224 -4 5 -15 7 -25 3 -12 -5 -22
-1 -31 11 -13 18 -14 18 -14 1 0 -12 -6 -16 -22 -14 -20 3 -23 9 -24 46 0 27
3 38 9 30 7 -10 10 -10 14 0 2 6 11 12 18 12 7 0 16 -6 18 -12 4 -10 8 -9 17
2 10 13 11 12 6 -4 -4 -10 -1 -25 5 -33 7 -7 9 -16 5 -20 -3 -3 -6 -1 -6 6 0
7 -4 9 -10 6 -15 -9 -12 -24 5 -21 23 3 27 12 17 47 -8 33 -10 34 -63 35 l-55
2 0 -47 c1 -35 -3 -46 -16 -49 -9 -2 -22 6 -28 19 -10 17 -9 20 2 16 7 -2 12
-9 11 -14 -1 -5 4 -10 11 -10 7 0 13 6 13 13 0 7 -5 12 -11 11 -6 -1 -10 6 -8
16 2 9 -2 17 -9 17 -6 0 -17 7 -23 16 -7 9 -27 19 -44 22 -42 9 -45 25 -6 33
l29 7 -27 1 c-16 0 -37 -8 -48 -19 -14 -14 -33 -20 -65 -20 -49 0 -62 16 -17
23 15 2 0 4 -33 4 -33 0 -48 -2 -32 -4 43 -7 31 -23 -18 -23 -31 0 -47 5 -55
18 -10 16 -10 16 -20 0 -6 -10 -22 -18 -36 -18 -16 0 -24 -5 -21 -12 2 -7 14
-12 25 -10 21 3 22 -1 22 -68 0 -45 4 -69 10 -65 6 4 10 -12 10 -42 l-1 -48
-16 27 c-22 35 -62 42 -132 22 -78 -23 -108 -57 -102 -117 1 -9 -4 -17 -11
-17 -7 -1 -2 -7 12 -15 20 -11 22 -15 10 -20 -17 -6 -1519 -1 -1560 6 -17 3
-25 -1 -25 -11 0 -13 98 -15 809 -18 540 -1 813 -6 822 -12 26 -22 77 -30 116
-18 21 6 38 15 38 20 0 4 19 8 42 8 24 0 49 7 59 16 29 26 43 12 20 -18 -23
-28 -26 -38 -12 -38 11 0 41 62 35 72 -3 4 -25 5 -49 1 -27 -3 -50 -1 -58 6
-11 8 -16 6 -25 -13 -7 -16 -24 -27 -56 -35 -65 -16 -74 -14 -107 18 -23 24
-29 38 -29 73 0 58 13 72 84 91 51 14 61 14 80 1 13 -8 28 -25 34 -39 9 -19
19 -25 45 -25 23 0 42 -8 60 -26 25 -25 25 -25 32 -4 4 12 4 24 1 27 -3 4 -6
-2 -6 -12 0 -18 -1 -18 -16 -3 -18 18 -22 50 -11 90 6 25 4 27 -33 33 l-40 7
0 72 c0 43 -5 78 -12 86 -11 13 -11 13 2 3 9 -9 49 -13 117 -13 l103 0 0 -94
0 -95 -35 6 c-34 6 -35 5 -29 -24 4 -19 0 -42 -11 -64 l-18 -34 30 32 c21 22
44 34 72 39 26 4 38 10 34 18 -14 22 -13 49 2 67 12 13 13 19 4 25 -7 4 -10 3
-5 -4 3 -6 2 -13 -4 -17 -6 -4 -10 21 -10 69 0 71 1 76 21 76 19 0 21 -4 16
-37 -4 -22 -3 -32 2 -25 6 11 10 10 15 -4 6 -16 9 -16 17 -4 9 13 10 13 6 0
-2 -9 -14 -14 -31 -13 -29 2 -35 -17 -12 -36 11 -9 16 -9 22 0 4 7 3 9 -4 5
-6 -3 -13 -2 -17 4 -3 5 1 10 9 10 8 0 20 -9 26 -20 8 -16 8 -20 -4 -20 -21 0
-30 -20 -16 -33 10 -9 11 -9 6 0 -4 8 7 11 36 10 28 -1 45 -6 50 -17 6 -13 7
-13 7 0 1 11 12 16 34 17 17 1 24 -1 15 -4 -10 -2 -18 -9 -18 -14 0 -13 23 -7
37 11 11 13 12 13 13 1 0 -12 3 -12 12 -3 9 9 9 15 0 24 -15 15 -44 20 -36 6
4 -6 -5 -8 -22 -6 -40 4 -41 42 -1 46 16 2 27 -1 27 -9 0 -9 4 -8 15 1 27 23
42 5 42 -49 l-1 -51 -70 4 c-53 3 -74 9 -84 23 -13 16 -14 16 -9 1 7 -20 6
-21 -45 -9 -38 9 -53 -1 -21 -14 30 -11 176 -21 203 -14 9 2 16 -4 18 -17 2
-12 17 -27 36 -37 l33 -15 1 31 c0 17 -6 40 -15 51 -12 16 -14 17 -10 4 4 -10
2 -18 -3 -18 -6 0 -10 -8 -10 -17 0 -13 -3 -14 -8 -6 -12 19 -2 89 10 72 7
-10 8 -8 2 6 -4 11 -7 29 -7 40 1 28 42 434 48 468 2 15 1 27 -4 27 -4 0 -18
-106 -31 -235z m-235 -145 c-3 -5 -1 -10 5 -10 13 0 10 -30 -4 -33 -5 -1 -10
10 -12 26 -1 15 2 27 7 27 6 0 7 -4 4 -10z m70 -115 c0 -14 -8 -21 -25 -23
-21 -2 -26 2 -28 21 -1 20 3 24 26 23 20 -1 27 -6 27 -21z m-334 -88 c-14 -39
-31 -31 -31 14 0 41 1 42 19 25 14 -13 17 -24 12 -39z"/>
<path d="M385 1172 c-23 -12 -26 -17 -13 -20 20 -4 64 23 51 31 -4 3 -22 -2
-38 -11z"/>
<path d="M576 1181 c-3 -4 8 -15 24 -24 16 -10 31 -14 34 -9 2 4 -9 15 -25 24
-16 9 -31 13 -33 9z"/>
<path d="M1359 1147 c-67 -45 -47 -87 42 -87 61 0 93 18 87 48 -3 18 -63 62
-83 62 -7 0 -27 -10 -46 -23z m68 -11 c4 -8 17 -15 28 -18 11 -2 20 -10 20
-18 0 -12 -15 -15 -70 -15 -79 0 -90 13 -40 44 37 24 52 25 62 7z"/>
<path d="M2580 1155 c0 -8 -5 -15 -11 -15 -5 0 -7 5 -4 10 3 6 1 10 -4 10 -6
0 -11 -4 -11 -10 0 -5 -7 -7 -15 -4 -8 4 -15 2 -15 -3 0 -8 55 -33 73 -33 4 0
7 10 7 23 0 21 4 23 33 19 17 -3 29 -1 25 3 -4 4 -23 9 -43 12 -26 3 -35 0
-35 -12z"/>
<path d="M2695 1147 c-11 -8 -32 -13 -48 -12 -15 1 -25 -1 -21 -4 3 -3 29 -6
58 -7 44 0 52 2 52 18 0 21 -14 23 -41 5z"/>
<path d="M2250 1109 c0 -5 6 -9 13 -9 7 -1 5 -6 -5 -14 -20 -14 -25 -66 -7
-66 6 0 8 7 5 16 -4 10 3 26 18 41 13 13 23 18 22 11 0 -7 4 -13 9 -13 6 0 9
6 7 15 -2 11 2 10 13 -4 13 -18 20 -15 16 7 0 4 3 7 8 7 5 0 8 -18 6 -40 -2
-22 1 -40 6 -40 5 0 7 -10 4 -23 -4 -14 -1 -28 7 -35 12 -9 12 2 1 71 -6 45
-12 83 -12 84 -3 7 -111 0 -111 -8z"/>
<path d="M2554 1074 c-7 -3 -10 -14 -7 -24 6 -22 27 -25 83 -11 20 4 46 4 57
0 18 -6 21 -4 20 12 -1 14 -9 19 -28 19 -14 0 -46 2 -70 5 -24 2 -49 2 -55 -1z"/>
<path d="M343 1038 c-43 -14 -42 -28 2 -28 28 0 35 4 35 20 0 11 -1 20 -2 19
-2 -1 -18 -6 -35 -11z"/>
<path d="M610 1031 c0 -17 6 -21 34 -21 40 0 56 15 23 23 -12 2 -30 8 -39 12
-14 5 -18 2 -18 -14z"/>
<path d="M2290 988 c0 -7 5 -20 10 -28 8 -12 10 -12 10 5 1 19 1 19 14 3 24
-32 47 -20 26 12 -9 13 -10 13 -10 0 -1 -12 -3 -12 -14 3 -15 20 -36 23 -36 5z"/>
<path d="M2560 979 c0 -6 -6 -9 -12 -8 -25 3 -38 -1 -38 -12 0 -8 5 -8 15 1
12 10 15 10 15 -3 0 -9 5 -19 10 -22 12 -7 42 20 33 29 -4 3 -1 6 5 6 7 0 12
-6 12 -14 0 -10 13 -13 48 -13 39 1 48 4 48 19 0 20 -13 23 -35 9 -9 -6 -31
-4 -58 4 -24 7 -43 9 -43 4z"/>
<path d="M1800 941 c23 -20 45 -30 65 -30 l30 1 -30 7 c-16 4 61 6 173 5 138
0 202 3 203 10 0 6 4 2 9 -9 8 -19 9 -19 9 3 1 12 6 22 11 22 6 0 10 5 10 10
0 7 -17 8 -47 4 -65 -10 -334 -10 -408 -1 l-60 8 35 -30z"/>
<path d="M1463 948 c-21 -10 -39 -48 -22 -48 5 0 9 5 9 10 0 18 20 11 20 -7 1
-15 4 -14 21 6 17 21 22 22 30 10 7 -12 9 -12 9 1 1 12 3 12 14 -2 7 -10 18
-18 25 -18 6 0 32 -16 58 -36 55 -42 143 -88 143 -75 0 12 -166 121 -183 121
-7 0 -28 11 -47 25 -37 27 -45 29 -77 13z"/>
<path d="M1320 870 c-89 -61 -102 -71 -96 -78 7 -6 130 68 171 102 54 45 4 29
-75 -24z"/>
<path d="M2348 843 c0 -4 -2 -15 -2 -23 -1 -8 -7 -14 -12 -13 -6 1 -11 -4 -11
-11 0 -7 6 -13 13 -13 7 0 11 4 8 9 -3 4 2 11 10 14 9 3 16 12 16 19 0 15 -19
31 -22 18z"/>
<path d="M1260 765 c-41 -31 -53 -32 -45 -4 4 12 3 19 -1 17 -5 -2 -30 -14
-56 -26 -57 -27 -62 -35 -59 -87 2 -50 10 -75 21 -75 5 0 5 11 -1 24 -21 45
10 130 41 111 5 -3 10 -1 10 5 0 6 5 8 13 3 23 -14 51 -14 84 2 33 16 34 15
70 -14 21 -17 44 -31 53 -31 8 0 24 -7 34 -15 30 -23 53 -18 73 15 17 29 46
40 57 21 6 -9 96 -41 115 -41 6 0 30 14 54 31 35 26 49 30 82 26 22 -3 48 -8
58 -12 9 -4 17 -3 17 3 0 12 -21 21 -70 32 -19 5 -46 12 -59 16 -20 6 -22 4
-16 -15 8 -25 -16 -29 -35 -6 -13 16 -40 21 -40 7 0 -5 7 -17 15 -28 8 -10 15
-22 15 -26 0 -14 -27 -8 -52 11 -13 11 -33 19 -44 18 -13 -1 -20 5 -22 21 -4
25 -20 29 -29 6 -5 -13 -9 -12 -28 6 -26 25 -32 19 -41 -38 -6 -42 -34 -61
-34 -24 0 9 -5 24 -10 32 -8 13 -13 13 -31 2 -23 -15 -35 -8 -41 23 -2 12 -10
19 -20 17 -9 -1 -19 2 -23 8 -9 15 -18 13 -55 -15z"/>
<path d="M2520 704 c-6 -14 -10 -37 -9 -52 0 -25 1 -25 12 7 14 41 37 53 37
19 1 -20 2 -21 11 -6 12 22 -5 58 -27 58 -8 0 -19 -12 -24 -26z"/>
<path d="M2616 702 c-2 -4 -7 -25 -12 -47 -7 -41 -18 -55 -43 -55 -12 0 -12 3
-3 12 15 15 16 32 2 23 -5 -3 -10 -1 -10 4 0 6 -5 11 -10 11 -6 0 -8 -11 -4
-25 4 -15 2 -25 -5 -25 -6 0 -11 -7 -11 -15 0 -11 5 -12 26 -5 32 13 31 13 38
-6 4 -11 -3 -18 -25 -26 -17 -6 -27 -13 -22 -17 5 -3 12 -14 16 -23 6 -16 23
-18 172 -18 153 0 166 1 163 18 -2 11 -11 16 -23 14 -47 -9 -258 -13 -283 -7
l-27 7 27 10 c23 8 25 12 18 39 -8 27 -7 28 12 18 11 -6 20 -9 21 -7 1 2 8 14
15 27 8 12 9 20 3 16 -6 -3 -11 -1 -11 5 0 6 -4 9 -9 6 -5 -3 -7 -16 -3 -28 3
-14 2 -19 -6 -14 -23 14 -11 86 14 86 8 0 14 7 14 15 0 15 -25 21 -34 7z"/>
<path d="M1049 660 c-9 -31 -10 -43 -1 -52 9 -9 12 -4 12 21 0 18 5 41 10 52
7 12 7 19 1 19 -6 0 -16 -18 -22 -40z"/>
<path d="M2675 680 c-17 -18 -14 -25 9 -21 9 2 26 -18 26 -31 0 -5 -6 -7 -12
-5 -8 1 -12 -7 -10 -23 4 -21 2 -22 -12 -11 -10 9 -16 9 -16 3 0 -7 15 -15 33
-20 17 -5 31 -14 30 -19 -2 -11 115 -28 124 -19 3 3 -29 15 -71 28 -42 13 -76
26 -76 31 0 4 5 7 10 7 15 0 12 62 -4 82 -12 17 -14 17 -31 -2z"/>
<path d="M280 655 c0 -8 9 -15 20 -15 11 0 20 7 20 15 0 8 -9 15 -20 15 -11 0
-20 -7 -20 -15z"/>
<path d="M670 655 c0 -8 9 -15 20 -15 11 0 20 7 20 15 0 8 -9 15 -20 15 -11 0
-20 -7 -20 -15z"/>
<path d="M498 653 c-37 -6 -36 -23 2 -23 20 0 30 5 30 15 0 8 -1 14 -2 14 -2
-1 -15 -4 -30 -6z"/>
<path d="M360 630 c0 -5 20 -10 44 -10 25 0 48 5 51 10 4 6 -13 10 -44 10 -28
0 -51 -4 -51 -10z"/>
<path d="M1803 609 c9 -6 15 -15 11 -20 -4 -6 -10 -6 -19 1 -20 17 -45 1 -45
-29 1 -22 2 -23 10 -9 7 11 20 15 41 13 20 -3 32 1 36 11 7 18 -14 44 -36 44
-14 -1 -14 -2 2 -11z"/>
<path d="M2230 602 c-8 -4 -33 -19 -55 -33 -22 -14 -50 -29 -63 -33 l-23 -8
25 -19 c13 -10 27 -19 30 -19 9 0 2 24 -9 32 -5 4 9 8 31 8 43 0 71 -20 58
-41 -4 -7 -3 -9 4 -5 6 4 8 21 5 40 -6 36 12 80 28 71 5 -4 9 -1 9 4 0 12 -17
13 -40 3z"/>
<path d="M2284 566 c0 -25 -6 -52 -13 -60 -9 -11 -9 -16 1 -22 7 -4 10 -3 5 1
-12 14 25 45 54 45 15 0 31 5 34 10 4 6 -7 10 -24 10 -19 0 -31 5 -31 13 0 7
-6 21 -12 30 -11 15 -13 11 -14 -27z"/>
<path d="M230 584 c0 -14 10 -16 65 -12 36 2 70 9 77 16 9 9 -5 12 -65 12 -64
0 -77 -3 -77 -16z"/>
<path d="M430 590 c0 -11 14 -12 170 -14 114 -2 150 2 150 15 0 5 -72 9 -160
9 -100 0 -160 -4 -160 -10z"/>
<path d="M2412 559 c-2 -26 1 -29 28 -29 37 0 38 7 4 20 -14 6 -23 14 -19 19
3 5 2 12 -3 15 -4 2 -9 -9 -10 -25z"/>
<path d="M160 547 l-35 -11 39 -4 c43 -4 66 2 66 18 0 13 -25 12 -70 -3z"/>
<path d="M1787 554 c-11 -11 5 -34 23 -34 10 0 24 7 31 16 12 15 11 16 -9 10
-13 -5 -22 -3 -22 3 0 12 -13 15 -23 5z"/>
<path d="M2023 490 c-6 -16 -8 -30 -3 -30 5 0 10 6 13 13 3 8 11 6 28 -8 l24
-20 -21 25 c-12 14 -23 31 -25 38 -3 7 -9 -1 -16 -18z"/>
<path d="M2050 514 c0 -13 48 -59 55 -52 3 2 -9 17 -25 33 -17 16 -30 24 -30
19z"/>
<path d="M2355 509 c-6 -10 21 -19 55 -19 15 0 30 6 33 13 4 10 -6 14 -39 14
-25 0 -47 -4 -49 -8z"/>
<path d="M2265 459 c-4 -6 -13 -8 -20 -5 -7 2 -21 -5 -32 -17 l-18 -22 24 20
c21 18 24 18 18 3 -4 -10 -2 -18 4 -18 5 0 12 7 16 16 6 15 8 15 20 -2 7 -10
13 -13 13 -8 0 6 -6 16 -12 23 -11 11 -10 13 5 8 9 -4 17 -2 17 3 0 13 -27 13
-35 -1z"/>
<path d="M1279 434 c-13 -16 -12 -16 9 -5 29 15 61 6 57 -17 -2 -9 -6 -44 -9
-76 -5 -64 9 -66 30 -3 9 27 16 32 47 34 l36 2 -6 -44 c-7 -53 12 -63 25 -13
7 27 14 33 37 35 41 3 55 -13 55 -64 l0 -45 -35 4 c-42 5 -45 -2 -45 -88 0
-81 16 -84 22 -4 2 33 6 62 9 64 2 3 40 8 84 13 89 9 139 -1 141 -29 1 -10 2
-29 3 -43 3 -57 68 -79 93 -31 11 21 11 21 -10 3 -11 -10 -29 -17 -39 -15 -16
3 -18 15 -21 96 -2 64 -6 91 -14 86 -6 -4 -9 -1 -6 7 3 8 14 15 26 17 21 3 22
0 22 -87 0 -49 4 -92 9 -95 15 -9 31 18 21 34 -6 8 -10 39 -10 68 0 29 -4 61
-10 71 -9 17 -77 37 -108 32 -8 -1 -22 5 -33 15 -13 12 -27 15 -51 10 -45 -9
-140 -7 -153 3 -5 5 -27 11 -47 15 -27 5 -41 14 -50 34 -16 33 -58 41 -79 16z
m373 -133 c-5 -44 -4 -45 13 -31 17 14 17 14 6 -7 -23 -45 -59 -13 -49 45 2
12 -1 22 -7 24 -5 2 -11 -14 -13 -34 -2 -26 1 -38 9 -38 10 0 10 -3 2 -11 -19
-19 -43 -2 -43 28 0 59 9 72 50 71 l37 0 -5 -47z m81 2 c7 -36 -8 -74 -27 -67
-16 6 -26 47 -19 75 8 29 40 24 46 -8z"/>
<path d="M1255 386 c-22 -22 -31 -32 -19 -23 37 30 47 22 40 -30 -4 -34 -13
-55 -31 -70 -30 -26 -29 -27 13 -12 28 9 31 16 37 63 4 28 5 65 3 81 l-3 30
-40 -39z"/>
<path d="M967 370 c-30 -24 -50 -78 -42 -112 16 -64 95 -103 156 -78 41 18 62
52 63 106 1 39 -3 50 -32 75 -40 36 -105 40 -145 9z m107 -4 c61 -25 71 -101
21 -152 -54 -53 -155 -5 -155 74 0 35 54 88 93 91 4 1 22 -5 41 -13z"/>
<path d="M1004 306 c-9 -23 -1 -48 18 -60 26 -16 68 26 52 52 -14 22 -62 28
-70 8z"/>
<path d="M1397 343 c-11 -10 -8 -63 3 -63 6 0 10 6 10 13 0 6 3 22 6 35 6 21
-5 30 -19 15z"/>
<path d="M1496 314 c-12 -32 -6 -54 14 -54 16 0 20 7 20 35 0 37 -22 49 -34
19z"/>
<path d="M1338 273 c-9 -10 -22 -31 -31 -48 -27 -53 -72 -88 -106 -83 -16 2
-28 1 -25 -4 7 -11 47 -10 78 2 22 8 78 72 88 100 2 5 22 6 46 3 l42 -6 0 -58
c0 -63 13 -109 31 -109 8 0 8 4 -1 15 -9 11 -11 40 -8 98 l6 83 -44 -2 c-30
-2 -46 2 -52 12 -7 13 -10 12 -24 -3z"/>
<path d="M1239 230 c-52 -27 -66 -47 -47 -66 22 -22 50 -5 73 41 9 20 15 38
13 40 -1 2 -19 -5 -39 -15z"/>
</g>
</svg>
